<svg width="120" height="120" viewBox="0 0 120 120" fill="none" xmlns="http://www.w3.org/2000/svg">
<path d="M60.0013 93.3825C78.4397 93.3825 93.3864 78.435 93.3864 59.9967C93.3864 41.5583 78.4397 26.6108 60.0013 26.6108C41.563 26.6108 26.6162 41.5583 26.6162 59.9967C26.6162 78.435 41.563 93.3825 60.0013 93.3825Z" fill="white"/>
<path d="M16.8234 43.592C14.3329 39.2783 11.4054 34.7507 8.04094 30.0093C2.77354 39.1299 0 49.4764 0 60.0093C0 70.5422 2.77228 80.8886 8.03905 90.0093C13.3058 99.1299 20.8813 106.704 30.0031 111.968C39.125 117.233 49.4727 120.003 60.005 120.001C65.5274 112.255 69.2768 106.671 71.2532 103.247C75.0496 96.6716 79.9595 87.2573 85.983 75.0045V74.9976C83.3518 79.5608 79.5653 83.3504 75.0047 85.9853C65.7225 91.348 54.2841 91.3497 45.0003 85.9897C40.439 83.356 36.6516 79.5677 34.0189 75.0058C25.8376 59.7485 20.1058 49.2772 16.8234 43.592Z" fill="#229342"/>
<path d="M60.0039 119.998C70.5362 120 80.8832 117.228 90.0045 111.962C99.1258 106.697 106.7 99.122 111.965 90.0001C117.231 80.8783 120.002 70.5312 120 59.9988C119.998 49.4666 117.223 39.1201 111.955 30.0001C100.589 28.8799 92.2002 28.3198 86.7895 28.3198C80.6546 28.3198 71.7246 28.8799 59.9995 30.0001L59.9932 30.0045C65.2602 30.002 70.435 31.3864 74.9973 34.0184C79.5598 36.6508 83.3481 40.4373 85.9824 44.9985C91.3438 54.2818 91.3436 65.7205 85.9818 75.0036L60.0039 119.998Z" fill="#FBC116"/>
<path d="M60.0012 83.7549C73.1187 83.7549 83.7524 73.1212 83.7524 60.0031C83.7524 46.885 73.1187 36.252 60.0012 36.252C46.8837 36.252 36.25 46.8856 36.25 60.0031C36.25 73.1206 46.8837 83.7549 60.0012 83.7549Z" fill="#1A73E8"/>
<path d="M60.0012 30.0019H111.956C106.692 20.88 99.118 13.3046 89.9968 8.03779C80.8758 2.77138 70.529 -0.000799073 59.9968 1.72774e-07C49.4645 1.72774e-07 39.118 2.77417 29.998 8.0422C20.8777 13.3099 13.305 20.8861 8.0415 30.0088L34.0194 75.0041L34.0264 75.0078C28.6619 65.7264 28.6583 54.2876 34.0169 45.0028C36.6494 40.4409 40.4377 36.6526 44.999 34.0195C49.5602 31.3864 54.735 30 60.0024 30.0012L60.0012 30.0019Z" fill="#E33B2E"/>
</svg>
