<svg width="120" height="124" viewBox="0 0 120 124" fill="none" xmlns="http://www.w3.org/2000/svg">
<path d="M115.634 41.6104C113.02 35.3368 107.721 28.5404 103.586 26.4017C106.533 32.1287 108.6 38.2835 109.67 44.6284V44.7235C102.873 27.8037 91.3715 20.9598 81.9611 6.10744C81.4858 5.347 81.0105 4.61032 80.5352 3.80236C80.2738 3.35085 80.06 2.94686 79.8699 2.56664C79.4896 1.8062 79.1807 1.022 78.9668 0.190272C78.9668 0.118981 78.9193 0.0476895 78.8242 0.0239258H78.7054L78.6817 0.0476895C78.6817 0.0476895 78.6579 0.0714532 78.6341 0.0714532L78.6579 0.0239258C63.5679 8.86403 58.4587 25.2135 57.9835 33.3882C51.9475 33.7922 46.1967 36.026 41.4439 39.7569C40.9449 39.3291 40.4221 38.9489 39.8993 38.5924C38.521 33.7922 38.4735 28.7305 39.7329 23.9065C34.196 26.5918 29.2769 30.394 25.2846 35.0754H25.2608C22.8845 32.0574 23.0508 22.1004 23.1934 20.033C22.4805 20.3181 21.8151 20.6746 21.1972 21.1023C19.106 22.5995 17.1336 24.2867 15.3276 26.1402C13.2602 28.2315 11.3828 30.489 9.71936 32.8654C5.86964 38.331 3.11305 44.5096 1.66346 51.0684L1.59217 51.4724C1.47335 51.9952 1.06937 54.6567 0.998076 55.227C0.998076 55.2746 0.998076 55.3221 0.974312 55.3696C0.451511 58.1024 0.118819 60.859 0 63.6394V63.9483C0.0475274 97.1225 26.9956 123.952 60.1697 123.904C89.3516 123.857 114.28 102.85 119.246 74.0954C119.341 73.3112 119.436 72.5508 119.508 71.7666C120.767 61.5482 119.436 51.1872 115.634 41.6104ZM46.4105 88.6388C46.6957 88.7814 46.9571 88.924 47.2423 89.0428L47.2898 89.0666C47.0046 88.924 46.7195 88.7814 46.4105 88.6388Z" fill="url(#paint0_linear_125_568)"/>
<path d="M115.634 41.6101C113.02 35.3365 107.721 28.5401 103.586 26.4014C106.533 32.1284 108.6 38.2832 109.67 44.6281V44.747C114.303 57.9833 113.638 72.5267 107.792 85.2879C100.901 100.069 84.2424 115.206 58.1736 114.446C30.0136 113.638 5.18049 92.7259 0.546566 65.3501C-0.308928 61.0251 0.546566 58.8388 0.974313 55.3218C0.403983 58.0546 0.0712912 60.8112 0 63.6153V63.9243C0.0475274 97.0984 26.9956 123.928 60.1697 123.88C89.3753 123.856 114.28 102.849 119.27 74.0951C119.365 73.3109 119.46 72.5505 119.532 71.7663C120.767 61.5479 119.436 51.1869 115.634 41.6101Z" fill="url(#paint1_radial_125_568)"/>
<path d="M115.634 41.6101C113.02 35.3365 107.721 28.5401 103.586 26.4014C106.533 32.1284 108.6 38.2832 109.67 44.6281V44.747C114.303 57.9833 113.638 72.5267 107.792 85.2879C100.901 100.069 84.2424 115.206 58.1736 114.446C30.0136 113.638 5.18049 92.7259 0.546566 65.3501C-0.308928 61.0251 0.546566 58.8388 0.974313 55.3218C0.403983 58.0546 0.0712912 60.8112 0 63.6153V63.9243C0.0475274 97.0984 26.9956 123.928 60.1697 123.88C89.3753 123.856 114.28 102.849 119.27 74.0951C119.365 73.3109 119.46 72.5505 119.532 71.7663C120.767 61.5479 119.436 51.1869 115.634 41.6101Z" fill="url(#paint2_radial_125_568)"/>
<path d="M86.4525 48.6679C86.5713 48.763 86.7139 48.858 86.8327 48.9531C85.3356 46.2678 83.4345 43.8201 81.2482 41.6814C62.57 23.0031 76.3529 1.18802 78.658 0.071127L78.6818 0.0473633C63.5918 8.88747 58.4826 25.2369 58.0073 33.4116C58.6965 33.3641 59.4094 33.3166 60.1223 33.3166C71.0298 33.3166 81.0819 39.1862 86.4525 48.6679Z" fill="url(#paint3_radial_125_568)"/>
<path d="M60.1699 52.3988C60.0748 53.8959 54.7993 59.0527 52.9457 59.0527C35.8596 59.0527 33.103 69.3899 33.103 69.3899C33.8635 78.0874 39.9232 85.2641 47.2424 89.0425C47.5751 89.2088 47.9078 89.3752 48.2643 89.5178C48.8584 89.7792 49.4287 90.0168 50.0228 90.2307C52.5417 91.1099 55.1795 91.6327 57.8411 91.7278C87.7833 93.1298 93.5817 55.9396 71.9805 45.1271C77.0659 44.4618 82.2464 45.7212 86.4526 48.6442C81.082 39.1624 71.0299 33.2928 60.1461 33.269C59.4332 33.269 58.7441 33.3166 58.0312 33.3641C51.9952 33.7681 46.2444 36.0019 41.4916 39.7328C42.4184 40.517 43.4402 41.5388 45.6265 43.6776C49.6901 47.7411 60.1461 51.8998 60.1699 52.3988Z" fill="url(#paint4_radial_125_568)"/>
<path d="M60.1699 52.3988C60.0748 53.8959 54.7993 59.0527 52.9457 59.0527C35.8596 59.0527 33.103 69.3899 33.103 69.3899C33.8635 78.0874 39.9232 85.2641 47.2424 89.0425C47.5751 89.2088 47.9078 89.3752 48.2643 89.5178C48.8584 89.7792 49.4287 90.0168 50.0228 90.2307C52.5417 91.1099 55.1795 91.6327 57.8411 91.7278C87.7833 93.1298 93.5817 55.9396 71.9805 45.1271C77.0659 44.4618 82.2464 45.7212 86.4526 48.6442C81.082 39.1624 71.0299 33.2928 60.1461 33.269C59.4332 33.269 58.7441 33.3166 58.0312 33.3641C51.9952 33.7681 46.2444 36.0019 41.4916 39.7328C42.4184 40.517 43.4402 41.5388 45.6265 43.6776C49.6901 47.7411 60.1461 51.8998 60.1699 52.3988Z" fill="url(#paint5_radial_125_568)"/>
<path d="M38.6876 37.7844C39.1628 38.0934 39.5668 38.3548 39.9233 38.6162C38.545 33.8159 38.4975 28.7542 39.7569 23.9302C34.22 26.6155 29.3009 30.4177 25.3086 35.0991C25.5938 35.0991 34.315 34.9328 38.6876 37.7844Z" fill="url(#paint6_radial_125_568)"/>
<path d="M0.546602 65.3742C5.18053 92.75 30.0136 113.686 58.1736 114.47C84.2424 115.207 100.901 100.069 107.792 85.312C113.614 72.5509 114.28 58.0312 109.67 44.7711C111.808 58.6728 104.727 72.1469 93.6528 81.2721L93.6291 81.3434C72.0754 98.9048 51.4485 91.9421 47.2898 89.0904C47.0047 88.9478 46.6957 88.8052 46.4106 88.6626C33.8396 82.6504 28.6591 71.2201 29.776 61.3819C23.6925 61.477 18.108 57.9599 15.5415 52.423C22.2429 48.3119 30.6077 47.9792 37.618 51.5437C44.7233 54.7756 52.8268 55.0845 60.1698 52.423C60.146 51.9239 49.69 47.7653 45.6264 43.7492C43.4401 41.6105 42.4183 40.5649 41.4915 39.8045C40.9924 39.3767 40.4696 38.9965 39.9468 38.64C39.5904 38.4024 39.1864 38.141 38.7111 37.8083C34.3386 34.9567 25.6173 35.123 25.3322 35.123H25.3084C22.932 32.105 23.0984 22.148 23.241 20.0806C22.528 20.3657 21.8627 20.7222 21.2448 21.1499C19.1536 22.647 17.1812 24.3343 15.3752 26.1878C13.3077 28.2553 11.4304 30.5128 9.74316 32.913C5.89344 38.3786 3.13685 44.5572 1.68726 51.116C1.61597 51.211 -0.499002 60.5502 0.546602 65.3742Z" fill="url(#paint7_radial_125_568)"/>
<path d="M81.2483 41.6578C83.4346 43.8203 85.3119 46.268 86.8328 48.9295C87.1655 49.1671 87.4744 49.4285 87.7358 49.6662C101.352 62.2134 94.2233 79.9649 93.6768 81.2244C104.727 72.1229 111.808 58.6489 109.67 44.7233C102.873 27.7798 91.3479 20.9596 81.9612 6.08351C81.486 5.32307 81.0107 4.5864 80.5354 3.77843C80.274 3.32692 80.0602 2.92294 79.87 2.54272C79.4898 1.78228 79.1809 0.998076 78.967 0.166346C78.967 0.0950549 78.9195 0.0237637 78.8244 0H78.7056L78.6819 0.0237637C78.6819 0.0237637 78.6581 0.0475274 78.6343 0.0475274C76.3055 1.14066 62.5225 22.9557 81.2008 41.634L81.2483 41.6578Z" fill="url(#paint8_radial_125_568)"/>
<path d="M87.7121 49.6898C87.4507 49.4522 87.1418 49.1908 86.8091 48.9531C86.6903 48.8581 86.5715 48.763 86.4289 48.668C82.1989 45.745 77.0422 44.4855 71.9568 45.1509C93.558 55.9634 87.7597 93.1536 57.8174 91.7516C55.1558 91.6328 52.5181 91.1337 49.9991 90.2545C49.405 90.0406 48.8347 89.803 48.2406 89.5416C47.9079 89.3752 47.5514 89.2326 47.2188 89.0663L47.2663 89.09C51.4487 91.9417 72.0518 98.9045 93.6055 81.3431L93.6293 81.2718C94.1996 79.9885 101.329 62.2608 87.7121 49.6898Z" fill="url(#paint9_radial_125_568)"/>
<path d="M33.079 69.3666C33.079 69.3666 35.8593 59.0293 52.9217 59.0293C54.7752 59.0293 60.0508 53.8726 60.1458 52.3755C52.8029 55.037 44.6994 54.7281 37.5941 51.4962C30.5838 47.9317 22.2189 48.2644 15.5176 52.3755C18.0841 57.9124 23.6448 61.4057 29.752 61.3344C28.6351 71.1488 33.8394 82.6029 46.3866 88.6152C46.6718 88.7577 46.9332 88.9003 47.2184 89.0191C39.8992 85.2407 33.8394 78.0641 33.079 69.3666Z" fill="url(#paint10_radial_125_568)"/>
<path d="M115.634 41.6104C113.02 35.3368 107.721 28.5404 103.586 26.4017C106.533 32.1287 108.6 38.2835 109.67 44.6284V44.7235C102.873 27.8037 91.3715 20.9598 81.9611 6.10744C81.4858 5.347 81.0105 4.61032 80.5352 3.80236C80.2738 3.35085 80.06 2.94686 79.8699 2.56664C79.4896 1.8062 79.1807 1.022 78.9668 0.190272C78.9668 0.118981 78.9193 0.0476895 78.8243 0.0239258H78.7054L78.6817 0.0476895C78.6817 0.0476895 78.6579 0.0714532 78.6341 0.0714532L78.6579 0.0239258C63.5679 8.86403 58.4587 25.2135 57.9835 33.3882C58.6726 33.3407 59.3855 33.2931 60.0984 33.2931C70.9822 33.3169 81.0343 39.1865 86.4049 48.6683C82.1749 45.7453 77.0182 44.4858 71.9328 45.1512C93.534 55.9637 87.7356 93.1539 57.7934 91.7519C55.1318 91.6331 52.4941 91.134 49.9751 90.2548C49.381 90.0409 48.8107 89.8032 48.2166 89.5418C47.8839 89.3755 47.5274 89.2329 47.1947 89.0666L47.2423 89.0903C46.9571 88.9478 46.6482 88.8052 46.363 88.6626C46.6482 88.8052 46.9096 88.9478 47.1947 89.0666C39.8518 85.2644 33.8158 78.1115 33.0553 69.414C33.0553 69.414 35.8357 59.0768 52.898 59.0768C54.7516 59.0768 60.0271 53.92 60.1222 52.4229C60.0984 51.9239 49.6424 47.7652 45.5788 43.7492C43.3925 41.6104 42.3707 40.5648 41.4439 39.8044C40.9449 39.3766 40.4221 38.9964 39.8993 38.64C38.521 33.8397 38.4735 28.778 39.7329 23.954C34.196 26.6393 29.2769 30.4415 25.2846 35.1229H25.3084C22.932 32.1049 23.0983 22.1479 23.2409 20.0805C22.528 20.3657 21.8626 20.7221 21.2448 21.1499C19.1536 22.647 17.1812 24.3342 15.3751 26.1878C13.3077 28.279 11.4303 30.5365 9.76689 32.9129C5.91716 38.3786 3.16057 44.5571 1.71099 51.1159L1.63969 51.5199C1.52088 52.0427 1.02184 54.728 0.950547 55.2983C0.475272 58.0787 0.190108 60.859 0.0712891 63.6632V63.9721C0.118816 97.1462 27.0669 123.975 60.241 123.928C89.4229 123.88 114.327 102.873 119.318 74.1192C119.413 73.335 119.508 72.5746 119.579 71.7903C120.767 61.572 119.436 51.1872 115.634 41.6104Z" fill="url(#paint11_linear_125_568)"/>
<defs>
<linearGradient id="paint0_linear_125_568" x1="107.672" y1="19.2159" x2="9.76029" y2="113.684" gradientUnits="userSpaceOnUse">
<stop offset="0.048" stop-color="#FFF44F"/>
<stop offset="0.111" stop-color="#FFE847"/>
<stop offset="0.225" stop-color="#FFC830"/>
<stop offset="0.368" stop-color="#FF980E"/>
<stop offset="0.401" stop-color="#FF8B16"/>
<stop offset="0.462" stop-color="#FF672A"/>
<stop offset="0.534" stop-color="#FF3647"/>
<stop offset="0.705" stop-color="#E31587"/>
</linearGradient>
<radialGradient id="paint1_radial_125_568" cx="0" cy="0" r="1" gradientUnits="userSpaceOnUse" gradientTransform="translate(103.802 13.9558) scale(122.954 122.954)">
<stop offset="0.129" stop-color="#FFBD4F"/>
<stop offset="0.186" stop-color="#FFAC31"/>
<stop offset="0.247" stop-color="#FF9D17"/>
<stop offset="0.283" stop-color="#FF980E"/>
<stop offset="0.403" stop-color="#FF563B"/>
<stop offset="0.467" stop-color="#FF3750"/>
<stop offset="0.71" stop-color="#F5156C"/>
<stop offset="0.782" stop-color="#EB0878"/>
<stop offset="0.86" stop-color="#E50080"/>
</radialGradient>
<radialGradient id="paint2_radial_125_568" cx="0" cy="0" r="1" gradientUnits="userSpaceOnUse" gradientTransform="translate(57.3129 65.0938) scale(122.954 122.954)">
<stop offset="0.3" stop-color="#960E18"/>
<stop offset="0.351" stop-color="#B11927" stop-opacity="0.74"/>
<stop offset="0.435" stop-color="#DB293D" stop-opacity="0.343"/>
<stop offset="0.497" stop-color="#F5334B" stop-opacity="0.094"/>
<stop offset="0.53" stop-color="#FF3750" stop-opacity="0"/>
</radialGradient>
<radialGradient id="paint3_radial_125_568" cx="0" cy="0" r="1" gradientUnits="userSpaceOnUse" gradientTransform="translate(72.8092 -13.9375) scale(89.0657 89.0657)">
<stop offset="0.132" stop-color="#FFF44F"/>
<stop offset="0.252" stop-color="#FFDC3E"/>
<stop offset="0.506" stop-color="#FF9D12"/>
<stop offset="0.526" stop-color="#FF980E"/>
</radialGradient>
<radialGradient id="paint4_radial_125_568" cx="0" cy="0" r="1" gradientUnits="userSpaceOnUse" gradientTransform="translate(43.3663 97.6358) scale(58.5401 58.5402)">
<stop offset="0.353" stop-color="#3A8EE6"/>
<stop offset="0.472" stop-color="#5C79F0"/>
<stop offset="0.669" stop-color="#9059FF"/>
<stop offset="1" stop-color="#C139E6"/>
</radialGradient>
<radialGradient id="paint5_radial_125_568" cx="0" cy="0" r="1" gradientUnits="userSpaceOnUse" gradientTransform="translate(63.4743 54.4384) rotate(-13.5933) scale(31.0431 36.3428)">
<stop offset="0.206" stop-color="#9059FF" stop-opacity="0"/>
<stop offset="0.278" stop-color="#8C4FF3" stop-opacity="0.064"/>
<stop offset="0.747" stop-color="#7716A8" stop-opacity="0.45"/>
<stop offset="0.975" stop-color="#6E008B" stop-opacity="0.6"/>
</radialGradient>
<radialGradient id="paint6_radial_125_568" cx="0" cy="0" r="1" gradientUnits="userSpaceOnUse" gradientTransform="translate(55.7636 9.30727) scale(42.121 42.121)">
<stop stop-color="#FFE226"/>
<stop offset="0.121" stop-color="#FFDB27"/>
<stop offset="0.295" stop-color="#FFC82A"/>
<stop offset="0.502" stop-color="#FFA930"/>
<stop offset="0.732" stop-color="#FF7E37"/>
<stop offset="0.792" stop-color="#FF7139"/>
</radialGradient>
<radialGradient id="paint7_radial_125_568" cx="0" cy="0" r="1" gradientUnits="userSpaceOnUse" gradientTransform="translate(89.8552 -18.5861) scale(179.714 179.714)">
<stop offset="0.113" stop-color="#FFF44F"/>
<stop offset="0.456" stop-color="#FF980E"/>
<stop offset="0.622" stop-color="#FF5634"/>
<stop offset="0.716" stop-color="#FF3647"/>
<stop offset="0.904" stop-color="#E31587"/>
</radialGradient>
<radialGradient id="paint8_radial_125_568" cx="0" cy="0" r="1" gradientUnits="userSpaceOnUse" gradientTransform="translate(74.6054 -8.46047) rotate(83.9766) scale(131.698 86.4256)">
<stop stop-color="#FFF44F"/>
<stop offset="0.06" stop-color="#FFE847"/>
<stop offset="0.168" stop-color="#FFC830"/>
<stop offset="0.304" stop-color="#FF980E"/>
<stop offset="0.356" stop-color="#FF8B16"/>
<stop offset="0.455" stop-color="#FF672A"/>
<stop offset="0.57" stop-color="#FF3647"/>
<stop offset="0.737" stop-color="#E31587"/>
</radialGradient>
<radialGradient id="paint9_radial_125_568" cx="0" cy="0" r="1" gradientUnits="userSpaceOnUse" gradientTransform="translate(55.7636 24.803) scale(112.181 112.181)">
<stop offset="0.137" stop-color="#FFF44F"/>
<stop offset="0.48" stop-color="#FF980E"/>
<stop offset="0.592" stop-color="#FF5634"/>
<stop offset="0.655" stop-color="#FF3647"/>
<stop offset="0.904" stop-color="#E31587"/>
</radialGradient>
<radialGradient id="paint10_radial_125_568" cx="0" cy="0" r="1" gradientUnits="userSpaceOnUse" gradientTransform="translate(85.206 31.0022) scale(122.787 122.787)">
<stop offset="0.094" stop-color="#FFF44F"/>
<stop offset="0.231" stop-color="#FFE141"/>
<stop offset="0.509" stop-color="#FFAF1E"/>
<stop offset="0.626" stop-color="#FF980E"/>
</radialGradient>
<linearGradient id="paint11_linear_125_568" x1="106.472" y1="18.7137" x2="23.1731" y2="102.028" gradientUnits="userSpaceOnUse">
<stop offset="0.167" stop-color="#FFF44F" stop-opacity="0.8"/>
<stop offset="0.266" stop-color="#FFF44F" stop-opacity="0.634"/>
<stop offset="0.489" stop-color="#FFF44F" stop-opacity="0.217"/>
<stop offset="0.6" stop-color="#FFF44F" stop-opacity="0"/>
</linearGradient>
</defs>
</svg>
