<svg width="121" height="121" viewBox="0 0 121 121" fill="none" xmlns="http://www.w3.org/2000/svg">
<path d="M60.0288 119.505C92.3892 119.505 118.623 93.2716 118.623 60.9111C118.623 28.5507 92.3892 2.31738 60.0288 2.31738C27.6684 2.31738 1.43506 28.5507 1.43506 60.9111C1.43506 93.2716 27.6684 119.505 60.0288 119.505Z" fill="url(#paint0_linear_127_589)"/>
<path d="M59.5601 8.03613V16.6611H60.4976V8.03613H59.5601ZM55.902 8.27988L54.9682 8.35488L55.3432 13.0424L56.277 12.9674L55.902 8.27988ZM64.1557 8.27988L63.7807 12.9674L64.7145 13.0424L65.0895 8.35488L64.1557 8.27988ZM51.3035 8.79926L50.3792 8.96051L51.8792 17.4927L52.8035 17.3305L51.3035 8.79926ZM68.7542 8.79926L67.2542 17.3305L68.1785 17.4936L69.6785 8.96051L68.7542 8.79926ZM46.7942 9.78926L45.8895 10.0339L47.1073 14.5349L48.012 14.2902L46.7942 9.78926ZM73.2635 9.78926L72.0457 14.2893L72.9504 14.5349L74.1682 10.0349L73.2635 9.78926ZM42.4704 11.0671L41.5863 11.3821L44.4945 19.5383L45.3767 19.2224L42.4704 11.0671ZM77.5873 11.0671L74.681 19.2233L75.5632 19.5374L78.4713 11.3821L77.5873 11.0671ZM81.9185 12.8033L79.856 17.1168L80.7017 17.5199L82.7651 13.2074L81.9185 12.8033ZM38.142 12.8099L37.2907 13.1999L39.2595 17.5124L40.1107 17.1243L38.142 12.8099ZM34.092 14.9286L33.2792 15.3955L37.5917 22.8955L38.4045 22.4286L34.092 14.9286ZM85.9657 14.9286L81.6532 22.4286L82.467 22.8955L86.7795 15.3955L85.9657 14.9286ZM30.1292 17.3286L29.3642 17.8696L32.0829 21.7143L32.8488 21.1724L30.1292 17.3286ZM89.9285 17.3286L87.2098 21.1724L87.9748 21.7143L90.6935 17.8696L89.9285 17.3286ZM26.5442 20.1111L25.827 20.7149L31.3582 27.2774L32.0745 26.6736L26.5442 20.1111ZM93.5135 20.1111L87.9832 26.6736L88.6995 27.2774L94.2307 20.7149L93.5135 20.1111ZM23.0435 23.1702L22.3901 23.8424L25.7651 27.1236L26.4176 26.4514L23.0435 23.1702ZM19.9217 26.5208L19.3226 27.2408L25.9788 32.7721L26.5788 32.0502L19.9217 26.5208ZM100.136 26.5208L93.4788 32.0511L94.0788 32.773L100.735 27.2408L100.136 26.5208ZM17.0763 30.1518L16.5429 30.9233L20.4813 33.6421L21.0148 32.8696L17.0763 30.1518ZM102.981 30.1518L99.0438 32.8696L99.5763 33.6421L103.514 30.9233L102.981 30.1518ZM14.607 34.0677L14.1401 34.8805L21.6401 39.193L22.107 38.3802L14.607 34.0677ZM105.453 34.0677L97.9526 38.3802L98.4195 39.193L105.919 34.8805L105.453 34.0677ZM12.5088 38.0802L12.1132 38.9296L16.332 40.8983L16.7276 40.048L12.5088 38.0802ZM107.551 38.0802L103.332 40.0489L103.728 40.8974L107.946 38.9286L107.551 38.0802ZM10.6929 42.283L10.3648 43.1614L18.4273 46.1633L18.7554 45.2839L10.6929 42.283ZM109.365 42.283L101.302 45.2839L101.63 46.1633L109.693 43.1614L109.365 42.283ZM9.2426 46.6761L9.0026 47.5827L13.5963 48.8024L13.8373 47.8958L9.2426 46.6761ZM110.815 46.6761L106.221 47.8958L106.46 48.8024L111.054 47.5836L110.815 46.6761ZM8.17385 51.1677L8.01072 52.0911L16.542 53.5921L16.7042 52.6677L8.17385 51.1677ZM111.884 51.1677L103.353 52.6677L103.517 53.5921L112.048 52.0911L111.884 51.1677ZM7.57572 55.663L7.48385 56.5968L12.1713 57.0655L12.2632 56.1318L7.57572 55.663ZM112.484 55.663L107.796 56.1318L107.888 57.0655L112.576 56.5968L112.484 55.663ZM7.34229 60.3486V61.2861H15.9663V60.3486H7.34229ZM104.091 60.3486V61.2861H112.716V60.3486H104.091ZM12.1704 64.4764L7.48291 64.9452L7.57478 65.8771L12.2623 65.4083L12.1704 64.4764ZM107.887 64.4764L107.795 65.4083L112.483 65.8771L112.575 64.9452L107.887 64.4764ZM16.541 67.9499L8.00978 69.4499L8.17385 70.3724L16.7051 68.8724L16.541 67.9499ZM103.517 67.9499L103.354 68.8724L111.885 70.3724L112.047 69.4489L103.517 67.9499ZM13.5973 72.7405L9.00354 73.9574L9.2426 74.8639L13.8363 73.6461L13.5973 72.7405ZM106.46 72.7405L106.22 73.6461L110.814 74.8639L111.055 73.9574L106.46 72.7405ZM18.4273 75.3786L10.3648 78.3777L10.6929 79.2561L18.7554 76.2571L18.4273 75.3786ZM101.63 75.3786L101.302 76.2571L109.365 79.2571L109.693 78.3777L101.63 75.3786ZM16.331 80.6427L12.1123 82.6114L12.5079 83.4608L16.7267 81.4921L16.331 80.6427ZM103.727 80.6427L103.331 81.4921L107.55 83.4608L107.945 82.6105L103.727 80.6427ZM21.6392 82.4427L14.1392 86.7552L14.606 87.568L22.106 83.2555L21.6392 82.4427ZM98.4185 82.4427L97.9517 83.2555L105.452 87.568L105.919 86.7543L98.4185 82.4427ZM20.4813 87.9008L16.5438 90.6196L17.0763 91.3911L21.0138 88.6724L20.4813 87.9008ZM99.5763 87.9008L99.0429 88.6714L102.981 91.3902L103.515 90.6196L99.5763 87.9008ZM25.9788 88.7689L19.3226 94.3002L19.9217 95.0221L26.5788 89.4908L25.9788 88.7689ZM94.0788 88.7689L93.4788 89.4908L100.136 95.0221L100.735 94.3002L94.0788 88.7689ZM31.3582 94.2655L25.827 100.828L26.5442 101.433L32.0745 94.8702L31.3582 94.2655ZM88.6995 94.2655L87.9832 94.8702L93.5135 101.433L94.2307 100.828L88.6995 94.2655ZM94.2935 94.4193L93.6401 95.0914L97.0151 98.3727L97.6676 97.7005L94.2935 94.4193ZM37.5935 98.7374L33.281 106.144L34.0901 106.616L38.4026 99.2099L37.5935 98.7374ZM82.4651 98.7374L81.6551 99.2099L85.9676 106.616L86.7767 106.144L82.4651 98.7374ZM32.0838 99.8286L29.3642 103.672L30.1292 104.213L32.8479 100.369L32.0838 99.8286ZM87.9748 99.8286L87.2088 100.369L89.9276 104.213L90.6935 103.671L87.9748 99.8286ZM44.4935 102.004L41.5873 110.16L42.4704 110.474L45.3767 102.319L44.4935 102.004ZM75.5632 102.004L74.681 102.319L77.5873 110.475L78.4713 110.159L75.5632 102.004ZM51.8792 104.049L50.3792 112.581L51.3035 112.743L52.8035 104.211L51.8792 104.049ZM68.1785 104.049L67.2542 104.212L68.7542 112.744L69.6785 112.58L68.1785 104.049ZM39.3579 104.111L37.2945 108.33L38.1363 108.742L40.2007 104.524L39.3579 104.111ZM80.6998 104.111L79.857 104.524L81.9213 108.742L82.7632 108.33L80.6998 104.111ZM59.5601 104.88V113.505H60.4976V104.88H59.5601ZM47.1073 107.01L45.8876 111.604L46.7942 111.844L48.0129 107.25L47.1073 107.01ZM72.9504 107.01L72.0438 107.25L73.2635 111.844L74.1701 111.604L72.9504 107.01ZM55.3432 108.591L54.9682 113.279L55.902 113.354L56.277 108.666L55.3432 108.591ZM64.7145 108.591L63.7807 108.666L64.1557 113.354L65.0895 113.279L64.7145 108.591Z" fill="white"/>
<path d="M100.06 20.5986L55.0601 55.9424L59.9351 60.8174L100.06 20.5986Z" fill="#FF0000"/>
<path d="M59.9351 60.8174L65.5601 66.4424L100.06 20.5986L59.9351 60.8174Z" fill="#D01414"/>
<path d="M55.0601 55.9424L19.7163 100.942L59.9351 60.8174L55.0601 55.9424Z" fill="white"/>
<path d="M19.7163 100.942L65.5601 66.4424L59.9351 60.8174L19.7163 100.942Z" fill="#ACACAC"/>
<defs>
<linearGradient id="paint0_linear_127_589" x1="60.0476" y1="2.32863" x2="60.0476" y2="119.509" gradientUnits="userSpaceOnUse">
<stop stop-color="#19D7FF"/>
<stop offset="1" stop-color="#1E64F0"/>
</linearGradient>
</defs>
</svg>
